<svg width="624" height="212" viewBox="0 0 624 212" fill="none" xmlns="http://www.w3.org/2000/svg">
<path d="M16.484 56.8611V78.8434H100.845V83.0346H16.484V105.017H59.4476V152.147H81.536V105.017H123.766V56.8611H16.484Z" fill="white"/>
<path d="M607.516 56.4922V78.4745H523.155V82.6657H607.516V104.648H564.552V151.778H542.464V104.648H500.234V56.4922H607.516Z" fill="white"/>
<path d="M216.268 123.287C230.314 119.591 240.714 106.251 240.714 90.3564C240.714 71.6083 226.24 56.4058 208.387 56.4058H146.756V80.2387L172.912 109.566V132.188H168.728V111.111L146.756 86.4765V152.602H195.67V134.949L211.351 152.602H242.297L216.268 123.287ZM204.481 103.559C202.679 103.56 200.896 103.191 199.243 102.475C197.59 101.759 196.102 100.711 194.873 99.3961C194.728 99.2462 194.596 99.0906 194.463 98.9349L175.142 77.2524H204.481C206.234 77.2157 207.977 77.5286 209.607 78.1725C211.237 78.8165 212.722 79.7786 213.974 81.0026C215.227 82.2265 216.222 83.6876 216.901 85.3002C217.581 86.9129 217.931 88.6446 217.931 90.3939C217.931 92.1432 217.581 93.8749 216.901 95.4876C216.222 97.1002 215.227 98.5613 213.974 99.7852C212.722 101.009 211.237 101.971 209.607 102.615C207.977 103.259 206.234 103.572 204.481 103.535V103.559Z" fill="white"/>
<path d="M319.627 108.712L367.409 56.8611H286.844L306.927 78.6589H317.229L309.14 87.4334L301.051 78.6589H301.248L281.164 56.8611H250.253L298.035 108.712V130.602H278.16V152.147H339.502V130.602H319.627V108.712Z" fill="white"/>
<path d="M401.977 77.921H478.4V56.8611H401.977C386.094 56.8611 373.244 69.8556 373.244 85.8999C373.23 91.3183 374.735 96.6326 377.589 101.242C380.442 105.852 384.531 109.574 389.393 111.987L373.216 131.012V152.141H449.656C465.544 152.141 478.417 139.094 478.417 122.998C478.417 106.902 465.544 93.8557 449.656 93.8557H435.737L445.559 82.3255H414.567L404.745 93.8557H401.96C399.842 93.8557 397.811 93.0163 396.314 91.5221C394.816 90.028 393.975 88.0014 393.975 85.8884C393.975 83.7753 394.816 81.7487 396.314 80.2546C397.811 78.7604 399.842 77.921 401.96 77.921H401.977ZM417.843 114.916H449.621V114.996C451.71 115.052 453.694 115.92 455.152 117.414C456.61 118.908 457.425 120.91 457.425 122.995C457.425 125.08 456.61 127.083 455.152 128.577C453.694 130.071 451.71 130.939 449.621 130.994H404.179L417.843 114.916Z" fill="white"/>
<path d="M68.2702 172.555L73.2796 188.571H69.7147L68.6516 185.238H62.4636L61.3947 188.571H57.8356L62.8449 172.555H68.2702ZM67.6578 182.131L65.5547 175.57L63.4573 182.131H67.6578Z" fill="white"/>
<path d="M106.508 172.555V175.663H100.88C99.686 175.816 98.5888 176.398 97.7937 177.3C96.9986 178.202 96.56 179.362 96.56 180.563C96.56 181.764 96.9986 182.924 97.7937 183.826C98.5888 184.728 99.686 185.31 100.88 185.463H106.508V188.571H100.73C100.73 188.571 93.392 188.34 93.392 180.563C93.392 172.786 100.73 172.555 100.73 172.555H106.508Z" fill="white"/>
<path d="M115.186 188.571V172.555H118.3V179.006H125.632V172.555H128.746V188.571H125.632V182.119H118.3V188.571H115.186Z" fill="white"/>
<path d="M148.535 188.571L145.328 182.119H141.862V188.571H138.742V179.819V179.006H146.524C146.524 179.006 148.541 179.035 148.541 177.334C148.541 175.634 146.524 175.663 146.524 175.663H138.765V172.555H147.004C147.004 172.555 151.713 172.659 151.713 177.334C151.778 178.318 151.508 179.295 150.946 180.105C150.383 180.916 149.562 181.512 148.616 181.797L151.984 188.571H148.535Z" fill="white"/>
<path d="M170.046 172.555C170.046 172.555 177.378 172.786 177.378 180.563C177.378 188.34 170.046 188.571 170.046 188.571H167.446C167.446 188.571 160.114 188.34 160.114 180.563C160.114 172.786 167.446 172.555 167.446 172.555H170.046ZM163.251 180.563C163.184 181.784 163.601 182.982 164.412 183.899C165.223 184.815 166.362 185.377 167.584 185.463H169.896C171.09 185.31 172.187 184.728 172.982 183.826C173.777 182.924 174.216 181.764 174.216 180.563C174.216 179.362 173.777 178.202 172.982 177.3C172.187 176.398 171.09 175.816 169.896 175.663H167.584C166.362 175.749 165.223 176.31 164.412 177.227C163.601 178.144 163.184 179.342 163.251 180.563Z" fill="white"/>
<path d="M190.124 172.555L196.346 183.907V172.555H199.46V188.571H195.335L189.136 177.133V188.571H186.044V172.555H190.124Z" fill="white"/>
<path d="M218.065 172.555C218.065 172.555 225.397 172.786 225.397 180.563C225.397 188.34 218.065 188.571 218.065 188.571H215.471C215.471 188.571 208.133 188.34 208.133 180.563C208.133 172.786 215.471 172.555 215.471 172.555H218.065ZM211.27 180.563C211.203 181.784 211.62 182.982 212.431 183.899C213.242 184.815 214.381 185.377 215.604 185.463H217.915C219.109 185.31 220.206 184.728 221.001 183.826C221.796 182.924 222.235 181.764 222.235 180.563C222.235 179.362 221.796 178.202 221.001 177.3C220.206 176.398 219.109 175.816 217.915 175.663H215.604C214.381 175.749 213.242 176.31 212.431 177.227C211.62 178.144 211.203 179.342 211.27 180.563Z" fill="white"/>
<path d="M234.064 185.463V172.555H237.178V185.463H246.561V188.571H234.064V185.463Z" fill="white"/>
<path d="M264.114 172.555C264.114 172.555 271.452 172.786 271.452 180.563C271.452 188.34 264.114 188.571 264.114 188.571H261.52C261.52 188.571 254.188 188.34 254.188 180.563C254.188 172.786 261.52 172.555 261.52 172.555H264.114ZM257.319 180.563C257.252 181.784 257.669 182.982 258.48 183.899C259.291 184.815 260.43 185.377 261.652 185.463H263.964C265.158 185.31 266.255 184.728 267.05 183.826C267.845 182.924 268.284 181.764 268.284 180.563C268.284 179.362 267.845 178.202 267.05 177.3C266.255 176.398 265.158 175.816 263.964 175.663H261.652C260.43 175.749 259.291 176.31 258.48 177.227C257.669 178.144 257.252 179.342 257.319 180.563Z" fill="white"/>
<path d="M292.408 172.555V175.663H286.786C285.592 175.816 284.495 176.398 283.699 177.3C282.904 178.202 282.466 179.362 282.466 180.563C282.466 181.764 282.904 182.924 283.699 183.826C284.495 184.728 285.592 185.31 286.786 185.463H289.293V179.606H292.408V188.571H286.63C286.63 188.571 279.298 188.34 279.298 180.563C279.298 172.786 286.63 172.555 286.63 172.555H292.408Z" fill="white"/>
<path d="M302.42 188.571V172.555H305.535V188.571H302.42Z" fill="white"/>
<path d="M327.294 172.555V175.663H321.666C320.472 175.816 319.375 176.398 318.58 177.3C317.785 178.202 317.346 179.362 317.346 180.563C317.346 181.764 317.785 182.924 318.58 183.826C319.375 184.728 320.472 185.31 321.666 185.463H327.294V188.571H321.516C321.516 188.571 314.184 188.34 314.184 180.563C314.184 172.786 321.516 172.555 321.516 172.555H327.294Z" fill="white"/>
<path d="M346.407 172.555L351.416 188.571H347.851L343.691 175.57L339.531 188.571H335.972L340.981 172.555H346.407Z" fill="white"/>
<path d="M360.088 185.463V172.555H363.203V185.463H372.586V188.571H360.088V185.463Z" fill="white"/>
<path d="M393.802 188.571V172.555H396.933V179.006H404.265V172.555H407.38V188.571H404.265V182.119H396.933V188.571H393.802Z" fill="white"/>
<path d="M417.387 188.571V172.555H420.501V188.571H417.387Z" fill="white"/>
<path d="M434.258 188.571V175.663H429.162V172.555H442.451V175.663H437.378V188.571H434.258Z" fill="white"/>
<path d="M463.713 172.555V175.663H458.085C456.891 175.816 455.794 176.398 454.999 177.3C454.204 178.202 453.765 179.362 453.765 180.563C453.765 181.764 454.204 182.924 454.999 183.826C455.794 184.728 456.891 185.31 458.085 185.463H463.713V188.571H457.935C457.935 188.571 450.597 188.34 450.597 180.563C450.597 172.786 457.935 172.555 457.935 172.555H463.713Z" fill="white"/>
<path d="M472.391 188.571V172.555H475.511V179.006H482.843V172.555H485.957V188.571H482.843V182.119H475.511V188.571H472.391Z" fill="white"/>
<path d="M495.97 188.571V172.555H499.084V179.006H506.422V172.555H509.536V188.571H506.422V182.119H499.084V188.571H495.97Z" fill="white"/>
<path d="M519.555 188.571V172.555H522.669V188.571H519.555Z" fill="white"/>
<path d="M532.665 188.571V172.555H535.785V178.649L540.517 172.555H544.186L537.963 180.563L544.186 188.571H540.517L535.785 182.477V188.571H532.665Z" fill="white"/>
<path d="M566.165 172.555V175.663H553.667V172.555H566.165ZM566.165 179.006V182.119H553.667V179.006H566.165ZM566.165 185.463V188.571H553.667V185.463H566.165Z" fill="white"/>
<path d="M16.484 46.3455V31.5984H19.2342V46.3455H16.484Z" fill="white"/>
<path d="M26.2947 46.3455V31.5984H29.0449V46.3455H26.2947Z" fill="white"/>
<path d="M39.4275 46.3456V34.458H34.9324V31.5754H46.6787V34.458H42.1778V46.3456H39.4275Z" fill="white"/>
<path d="M74.8915 38.9719C74.8915 46.1322 68.4147 46.3455 68.4147 46.3455H62.3364V31.5984H68.4147C68.4147 31.5984 74.8915 31.8059 74.8915 38.9719ZM65.0693 43.4803H68.276C68.276 43.4803 72.1009 43.2439 72.1009 38.9719C72.1009 34.7 68.276 34.4579 68.276 34.4579H65.0693V43.4803Z" fill="white"/>
<path d="M91.8204 31.5984V34.4809H80.7849V31.5984H91.8204ZM91.8204 37.5422V40.4248H80.7849V37.5422H91.8204ZM91.8204 43.4803V46.3628H80.7849V43.4803H91.8204Z" fill="white"/>
<path d="M98.8982 43.4803V31.5984H101.648V43.4803H109.934V46.3628H98.8982V43.4803Z" fill="white"/>
<path d="M115.602 46.3455V31.5984H118.352V37.5422H124.829V31.5984H127.579V46.3455H124.829V40.4017H118.352V46.3455H115.602Z" fill="white"/>
<path d="M134.657 46.3455V31.5984H137.407V46.3455H134.657Z" fill="white"/>
<path d="M144.479 31.5984L143.832 35.1036H141.22L141.868 31.5984H144.479Z" fill="white"/>
<path d="M159.594 31.5984V34.4809H152.331C152.331 34.4809 150.552 34.4809 150.552 36.026C150.552 37.571 152.331 37.5653 152.331 37.5653H155.954C155.954 37.5653 160.114 37.6633 160.114 41.964C160.114 46.2648 155.954 46.3686 155.954 46.3686H148.304V43.486H155.567C155.567 43.486 157.346 43.486 157.346 41.9467C157.346 40.4075 155.567 40.4075 155.567 40.4075H151.956C151.956 40.4075 147.796 40.3095 147.796 36.0087C147.796 31.7079 151.956 31.6042 151.956 31.6042L159.594 31.5984Z" fill="white"/>
<path d="M438.233 32.9128L437.343 39.831H441.076V32.9128H443.618V39.831H444.941V42.4887H443.618V46.6626H441.076V42.4887H434.454L435.691 32.9128H438.233Z" fill="white"/>
<path d="M477.36 38.4531V41.1224H469.953V38.4531H477.36Z" fill="white"/>
<path d="M503.198 32.9129V35.5821H499.235C498.442 35.6562 497.692 35.9729 497.087 36.489C496.482 37.005 496.051 37.6951 495.855 38.4647H499.98C499.98 38.4647 503.822 38.5569 503.822 42.5694C503.822 46.5819 499.98 46.6742 499.98 46.6742H499.125C499.125 46.6742 493.145 46.4666 493.145 39.7791C493.145 33.0916 499.125 32.9014 499.125 32.9014L503.198 32.9129ZM499.235 43.9934H499.616C499.616 43.9934 501.263 43.9934 501.263 42.5579C501.263 41.1224 499.616 41.1224 499.616 41.1224H495.855C496.053 41.8903 496.484 42.5783 497.089 43.0922C497.694 43.6062 498.443 43.921 499.235 43.9934Z" fill="white"/>
<path d="M532.012 32.9128L534.947 40.2979L537.911 32.9128H541.089V46.6626H538.547V37.7036L536.028 43.3188H533.867L531.348 37.7036V46.6626H528.811V32.9128H532.012Z" fill="white"/>
<path d="M555.013 32.9128L559.098 46.6626H556.209L552.818 35.5014L549.409 46.6626H546.52L550.605 32.9128H555.013Z" fill="white"/>
<path d="M572.514 46.6626L569.897 41.1223H567.083V46.6626H564.547V39.168V38.4531H570.902C570.902 38.4531 572.543 38.4531 572.543 37.0176C572.543 35.5821 570.902 35.5821 570.902 35.5821H564.547V32.9128H571.26C571.26 32.9128 575.103 33.0051 575.103 37.0176C575.103 39.4562 573.687 40.4421 572.572 40.8456L575.322 46.6626H572.514Z" fill="white"/>
<path d="M591.003 32.9128V35.5821H586.444C586.444 35.5821 582.914 35.8069 582.914 39.7906C582.914 43.7743 586.444 43.9934 586.444 43.9934H591.032V46.6626H586.335C586.335 46.6626 580.355 46.4666 580.355 39.7906C580.355 33.1146 586.335 32.9128 586.335 32.9128H591.003Z" fill="white"/>
<path d="M596.452 46.6626V32.9128H598.994V38.4531H604.974V32.9128H607.516V46.6626H604.974V41.1223H598.994V46.6626H596.452Z" fill="white"/>
<path d="M449.58 35.294V29.5289H447.402V28.0991H453.088V29.5H450.909V35.2651L449.58 35.294Z" fill="white"/>
<path d="M455.711 35.294V28.0991H457.022V30.9817H460.154V28.0991H461.483V35.294H460.154V32.4114H457.022V35.294H455.711Z" fill="white"/>
<path d="M510.322 35.2363V29.4367H508.144V28.0415H513.829V29.4367H511.651V35.2363H510.322Z" fill="white"/>
<path d="M516.452 35.2363V28.0415H517.787V30.9241H520.919V28.0415H522.248V35.2363H520.919V32.3538H517.787V35.2363H516.452Z" fill="white"/>
</svg>
